Input #0, mov,mp4,m4a,3gp,3g2,mj2, from '/home/hbattu/projects/huberman-gpt/huberman-audio/mp3/tmpc_y41x9r.mp4':
  Metadata:
    major_brand     : dash
    minor_version   : 0
    compatible_brands: iso6mp41
    creation_time   : 2023-05-13T05:52:40.000000Z
  Duration: 02:09:01.35, start: 0.000000, bitrate: 129 kb/s
    Stream #0:0(eng): Audio: aac (LC) (mp4a / 0x6134706D), 44100 Hz, stereo, fltp, 0 kb/s (default)
    Metadata:
      creation_time   : 2023-05-13T05:52:40.000000Z
      handler_name    : ISO Media file produced by Google Inc.
Stream mapping:
  Stream #0:0 -> #0:0 (aac (native) -> mp3 (libmp3lame))
Press [q] to stop, [?] for help
[graph_0_in_0_0 @ 0x55f43a5f8540] tb:1/44100 samplefmt:fltp samplerate:44100 chlayout:0x3
Output #0, mp3, to '../huberman-audio/mp3/eIxVfln02Ss.mp3':
  Metadata:
    major_brand     : dash
    minor_version   : 0
    compatible_brands: iso6mp41
    TSSE            : Lavf58.29.100
    Stream #0:0(eng): Audio: mp3 (libmp3lame), 44100 Hz, stereo, fltp, delay 1105 (default)
    Metadata:
      creation_time   : 2023-05-13T05:52:40.000000Z
      handler_name    : ISO Media file produced by Google Inc.
      encoder         : Lavc58.54.100 libmp3lame
No more output streams to write to, finishing.
size=  120960kB time=02:09:01.36 bitrate= 128.0kbits/s speed=88.2x    
[AVIOContext @ 0x55f43a4e7900] Statistics: 0 seeks, 176 writeouts
video:0kB audio:120959kB subtitle:0kB other streams:0kB global headers:0kB muxing overhead: 0.000279%
Input file #0 (/home/hbattu/projects/huberman-gpt/huberman-audio/mp3/tmpc_y41x9r.mp4):
  Input stream #0:0 (audio): 333392 packets read (123861683 bytes); 333392 frames decoded (341393408 samples); 
  Total: 333392 packets (123861683 bytes) demuxed
Output file #0 (../huberman-audio/mp3/eIxVfln02Ss.mp3):
  Output stream #0:0 (audio): 296349 frames encoded (341393408 samples); 296350 packets muxed (123862204 bytes); 
  Total: 296350 packets (123862204 bytes) muxed
[AVIOContext @ 0x55f43a513900] Statistics: 2 seeks, 474 writeouts
[AVIOContext @ 0x55f43a4f0880] Statistics: 125285931 bytes read, 0 seeks
